<?xml version="1.0" encoding="utf-8"?>
<!-- Generator: Adobe Illustrator 21.0.0, SVG Export Plug-In . SVG Version: 6.00 Build 0)  -->
<svg version="1.1" id="Layer_1" xmlns="http://www.w3.org/2000/svg" xmlns:xlink="http://www.w3.org/1999/xlink" x="0px" y="0px"
	 viewBox="0 0 960 545.5" enable-background="new 0 0 960 545.5" xml:space="preserve">
<polygon fill="#006837" stroke="#000000" stroke-miterlimit="10" points="153.3,633.7 260.3,441.3 317.6,486.6 373,441.3 
	435.5,485.9 496.6,441.3 553.9,482.7 609.3,441.3 659,477.2 713.8,441.3 825.3,633.7 746.3,603.1 667.9,633.7 564.8,596.1 
	442.5,633.7 321.4,589.7 "/>
<polygon fill="#009245" stroke="#000000" stroke-miterlimit="10" points="213,528.9 301,370.7 348.1,407.9 393.7,370.7 445,407.3 
	495.3,370.7 542.4,404.7 588,370.7 628.9,400.2 673.9,370.7 765.6,528.9 700.6,503.7 636.2,528.9 551.3,498 450.8,528.9 
	351.3,492.7 "/>
<polygon fill="#006837" stroke="#000000" stroke-miterlimit="10" points="245.9,439.3 323.4,299.9 364.9,332.7 405.1,299.9 
	450.3,332.2 494.6,299.9 536.1,329.9 576.3,299.9 612.2,325.9 651.9,299.9 732.7,439.3 675.4,417.1 618.7,439.3 544,412 
	455.4,439.3 367.7,407.4 "/>
<polygon fill="#009245" stroke="#000000" stroke-miterlimit="10" points="288.8,352.8 352.7,238 386.9,265 419.9,238 457.2,264.6 
	493.7,238 527.9,262.7 560.9,238 590.6,259.4 623.2,238 689.7,352.8 642.6,334.6 595.9,352.8 534.3,330.4 461.3,352.8 389.1,326.6 
	"/>
<polygon fill="#006837" stroke="#000000" stroke-miterlimit="10" points="323.6,282.9 376.4,188.1 404.6,210.4 432,188.1 
	462.7,210.1 492.9,188.1 521.2,208.5 548.5,188.1 573,205.8 600,188.1 655,282.9 616,267.9 577.4,282.9 526.5,264.4 466.2,282.9 
	406.5,261.3 "/>
<polygon fill="#009245" stroke="#000000" stroke-miterlimit="10" points="348.5,228.9 393.3,148.3 417.4,167.3 440.6,148.3 
	466.7,167 492.3,148.3 516.4,165.7 539.6,148.3 560.4,163.4 583.4,148.3 630.1,228.9 597,216.1 564.1,228.9 520.9,213.2 
	469.7,228.9 419,210.5 "/>
<polygon fill="#006837" stroke="#000000" stroke-miterlimit="10" points="370.2,182.5 408,114.5 428.3,130.5 447.9,114.5 470,130.3 
	491.6,114.5 511.9,129.1 531.5,114.5 549,127.2 568.4,114.5 607.8,182.5 579.9,171.7 552.2,182.5 515.7,169.2 472.4,182.5 
	429.6,167 "/>
<polygon fill="#009245" stroke="#000000" stroke-miterlimit="10" points="392.9,139.9 423.6,84.7 440,97.7 455.9,84.7 473.8,97.5 
	491.4,84.7 507.8,96.6 523.7,84.7 538,95 553.7,84.7 585.7,139.9 563,131.1 540.5,139.9 510.9,129.1 475.9,139.9 441.1,127.3 "/>
<polygon fill="#009245" stroke="#000000" stroke-miterlimit="10" points="440.7,73.6 456.2,45.7 464.5,52.3 472.5,45.7 481.5,52.2 
	490.3,45.7 498.6,51.7 506.6,45.7 513.8,50.9 521.8,45.7 537.9,73.6 526.4,69.1 515.1,73.6 500.2,68.1 482.5,73.6 465,67.2 "/>
<polygon fill="#39B54A" stroke="#000000" stroke-miterlimit="10" points="411.9,104.9 436.5,60.6 449.7,71 462.5,60.6 476.9,70.8 
	491,60.6 504.2,70.1 516.9,60.6 528.4,68.8 541,60.6 566.7,104.9 548.5,97.8 530.4,104.9 506.7,96.2 478.5,104.9 450.6,94.7 "/>
<polygon fill="#FCEE21" stroke="#000000" stroke-miterlimit="10" points="489,0.6 499.1,31.8 532,31.8 505.4,51.1 515.6,82.3 
	489,63.1 462.4,82.3 472.6,51.1 446,31.8 478.9,31.8 "/>
<g>
	
		<ellipse transform="matrix(0.9998 -2.221990e-02 2.221990e-02 0.9998 -5.2341 11.506)" fill="#AF463A" stroke="#000000" stroke-width="0.25" stroke-miterlimit="10" cx="515.1" cy="241.3" rx="14.1" ry="14.8"/>
	
		<ellipse transform="matrix(0.9998 -2.221990e-02 2.221990e-02 0.9998 -4.9296 11.4959)" fill="#DFDB9B" stroke="#000000" stroke-width="0.25" stroke-miterlimit="10" cx="514.8" cy="227.6" rx="5" ry="1.1"/>
</g>
<g>
	
		<ellipse transform="matrix(0.9998 -2.221990e-02 2.221990e-02 0.9998 -10.2291 8.5327)" fill="#AF463A" stroke="#000000" stroke-width="0.25" stroke-miterlimit="10" cx="378.8" cy="464.6" rx="14.1" ry="14.8"/>
	
		<ellipse transform="matrix(0.9998 -2.221990e-02 2.221990e-02 0.9998 -9.9246 8.5225)" fill="#DFDB9B" stroke="#000000" stroke-width="0.25" stroke-miterlimit="10" cx="378.5" cy="450.9" rx="5" ry="1.1"/>
</g>
<g>
	
		<ellipse transform="matrix(0.1209 -0.9927 0.9927 0.1209 34.1033 650.4102)" fill="#A154FC" stroke="#000000" stroke-width="0.25" stroke-miterlimit="10" cx="384.3" cy="306" rx="14.8" ry="14.1"/>
	
		<ellipse transform="matrix(0.1209 -0.9927 0.9927 0.1209 49.0746 640.0869)" fill="#DFDB9B" stroke="#000000" stroke-width="0.25" stroke-miterlimit="10" cx="385.9" cy="292.3" rx="1.1" ry="5"/>
</g>
<g>
	
		<ellipse transform="matrix(0.1209 -0.9927 0.9927 0.1209 91.2921 871.9174)" fill="#A154FC" stroke="#000000" stroke-width="0.25" stroke-miterlimit="10" cx="537.9" cy="384.4" rx="14.8" ry="14.1"/>
	
		<ellipse transform="matrix(0.1209 -0.9927 0.9927 0.1209 106.2634 861.5941)" fill="#DFDB9B" stroke="#000000" stroke-width="0.25" stroke-miterlimit="10" cx="539.6" cy="370.8" rx="1.1" ry="5"/>
</g>
<g>
	
		<ellipse transform="matrix(0.2037 -0.979 0.979 0.2037 148.9285 572.5692)" fill="#05ACAF" stroke="#000000" stroke-width="0.25" stroke-miterlimit="10" cx="426.5" cy="194.7" rx="14.8" ry="14.5"/>
	
		<ellipse transform="matrix(0.2037 -0.979 0.979 0.2037 164.2984 564.6129)" fill="#DFDB9B" stroke="#000000" stroke-width="0.25" stroke-miterlimit="10" cx="429.2" cy="181.3" rx="1.1" ry="5.1"/>
</g>
<g>
	
		<ellipse transform="matrix(0.9421 -0.3354 0.3354 0.9421 -70.3758 222.097)" fill="#05ACAF" stroke="#000000" stroke-width="0.25" stroke-miterlimit="10" cx="607.8" cy="314.8" rx="14.5" ry="14.8"/>
	
		<ellipse transform="matrix(0.9421 -0.3354 0.3354 0.9421 -66.3088 219.8057)" fill="#DFDB9B" stroke="#000000" stroke-width="0.25" stroke-miterlimit="10" cx="603.2" cy="301.9" rx="5.1" ry="1.1"/>
</g>
<g>
	
		<ellipse transform="matrix(0.9421 -0.3354 0.3354 0.9421 -118.2801 257.543)" fill="#05ACAF" stroke="#000000" stroke-width="0.25" stroke-miterlimit="10" cx="686.5" cy="471.2" rx="14.5" ry="14.8"/>
	
		<ellipse transform="matrix(0.9421 -0.3354 0.3354 0.9421 -114.213 255.2517)" fill="#DFDB9B" stroke="#000000" stroke-width="0.25" stroke-miterlimit="10" cx="681.9" cy="458.3" rx="5.1" ry="1.1"/>
</g>
<g>
	<g>
		
			<ellipse transform="matrix(0.9479 -0.3187 0.3187 0.9479 -21.9674 185.6906)" fill="#AF463A" stroke="#000000" stroke-width="0.25" stroke-miterlimit="10" cx="556.5" cy="160" rx="14.1" ry="14.8"/>
		
			<ellipse transform="matrix(0.9479 -0.3187 0.3187 0.9479 -18.0524 183.6198)" fill="#DFDB9B" stroke="#000000" stroke-width="0.25" stroke-miterlimit="10" cx="552.1" cy="147" rx="5" ry="1.1"/>
	</g>
	<path fill="none" stroke="#000000" stroke-width="0.25" stroke-miterlimit="10" d="M552.1,147l-4.6-13.1c0,0,0.5-5.5,4.6-1.8"/>
</g>
<path fill="none" stroke="#000000" stroke-width="0.25" stroke-miterlimit="10" d="M429.8,181.5l1.8-13.8c0,0,3-4.7,4.9,0.4"/>
<path fill="none" stroke="#000000" stroke-width="0.25" stroke-miterlimit="10" d="M514.8,227.5l-4.6-13.1c0,0,0.5-5.5,4.6-1.8"/>
<path fill="none" stroke="#000000" stroke-width="0.25" stroke-miterlimit="10" d="M603.2,301.9l-4.6-13.1c0,0,0.5-5.5,4.6-1.8"/>
<path fill="none" stroke="#000000" stroke-width="0.25" stroke-miterlimit="10" d="M386.3,293.4l-0.9-13.9c0,0,2-5.2,4.9-0.5"/>
<path fill="none" stroke="#000000" stroke-width="0.25" stroke-miterlimit="10" d="M539.4,371.1l-1.1-13.9c0,0,1.9-5.2,4.9-0.6"/>
<path fill="none" stroke="#000000" stroke-width="0.25" stroke-miterlimit="10" d="M378.4,451l-4.6-13.1c0,0,0.5-5.5,4.6-1.8"/>
<path fill="none" stroke="#000000" stroke-width="0.25" stroke-miterlimit="10" d="M681.7,458.5l-4.6-13.1c0,0,0.5-5.5,4.6-1.8"/>
</svg>
