<?xml version="1.0" encoding="utf-8"?>
<!-- Generator: Adobe Illustrator 21.0.0, SVG Export Plug-In . SVG Version: 6.00 Build 0)  -->
<svg version="1.1" id="Layer_1" xmlns="http://www.w3.org/2000/svg" xmlns:xlink="http://www.w3.org/1999/xlink" x="0px" y="0px"
	 viewBox="0 0 960 545.5" enable-background="new 0 0 960 545.5" xml:space="preserve">
<polygon fill="#006837" stroke="#000000" stroke-miterlimit="10" points="153.3,633.7 260.3,441.3 317.6,486.6 373,441.3 
	435.5,485.9 496.6,441.3 553.9,482.7 609.3,441.3 659,477.2 713.8,441.3 825.3,633.7 746.3,603.1 667.9,633.7 564.8,596.1 
	442.5,633.7 321.4,589.7 "/>
<polygon fill="#009245" stroke="#000000" stroke-miterlimit="10" points="153.3,527.9 260.3,335.6 317.6,380.8 373,335.6 
	435.5,380.2 496.6,335.6 553.9,377 609.3,335.6 659,371.4 713.8,335.6 825.3,527.9 746.3,497.4 667.9,527.9 564.8,490.4 
	442.5,527.9 321.4,484 "/>
<polygon fill="#006837" stroke="#000000" stroke-miterlimit="10" points="153.3,440.8 260.3,248.4 317.6,293.6 373,248.4 435.5,293 
	496.6,248.4 553.9,289.8 609.3,248.4 659,284.3 713.8,248.4 825.3,440.8 746.3,410.2 667.9,440.8 564.8,403.2 442.5,440.8 
	321.4,396.8 "/>
<polygon fill="#009245" stroke="#000000" stroke-miterlimit="10" points="153.3,345.6 260.3,153.2 317.6,198.5 373,153.2 
	435.5,197.8 496.6,153.2 553.9,194.6 609.3,153.2 659,189.1 713.8,153.2 825.3,345.6 746.3,315 667.9,345.6 564.8,308 442.5,345.6 
	321.4,301.6 "/>
<polygon fill="#006837" stroke="#000000" stroke-miterlimit="10" points="153.3,256.7 260.3,64.3 317.6,109.6 373,64.3 435.5,108.9 
	496.6,64.3 553.9,105.7 609.3,64.3 659,100.2 713.8,64.3 825.3,256.7 746.3,226.1 667.9,256.7 564.8,219.1 442.5,256.7 321.4,212.7 
	"/>
<polygon fill="#009245" stroke="#000000" stroke-miterlimit="10" points="153.3,170.8 260.3,-21.5 317.6,23.7 373,-21.5 435.5,23.1 
	496.6,-21.5 553.9,19.9 609.3,-21.5 659,14.3 713.8,-21.5 825.3,170.8 746.3,140.2 667.9,170.8 564.8,133.2 442.5,170.8 
	321.4,126.9 "/>
<polygon fill="#006837" stroke="#000000" stroke-miterlimit="10" points="153.3,87.7 260.3,-104.7 317.6,-59.4 373,-104.7 
	435.5,-60.1 496.6,-104.7 553.9,-63.3 609.3,-104.7 659,-68.8 713.8,-104.7 825.3,87.7 746.3,57.1 667.9,87.7 564.8,50.1 
	442.5,87.7 321.4,43.7 "/>
</svg>
