<?xml version="1.0" encoding="utf-8"?>
<!-- Generator: Adobe Illustrator 21.0.0, SVG Export Plug-In . SVG Version: 6.00 Build 0)  -->
<svg version="1.1" id="Layer_1" xmlns="http://www.w3.org/2000/svg" xmlns:xlink="http://www.w3.org/1999/xlink" x="0px" y="0px"
	 viewBox="0 0 960 917" style="enable-background:new 0 0 960 917;" xml:space="preserve">
<style type="text/css">
	.st0{fill:#634800;stroke:#000000;stroke-miterlimit:10;}
	.st1{fill:#AF463A;stroke:#000000;stroke-width:0.25;stroke-miterlimit:10;}
	.st2{fill:#A154FC;stroke:#000000;stroke-width:0.25;stroke-miterlimit:10;}
	.st3{fill:#05ACAF;stroke:#000000;stroke-width:0.25;stroke-miterlimit:10;}
	.st4{fill:#B91400;}
	.st5{fill:#F71B00;}
</style>
<rect x="455.3" y="-45.8" class="st0" width="68" height="962.8"/>
<g>
	<rect x="295" y="636.9" class="st1" width="401.3" height="280.1"/>
	<rect x="130" y="712.5" class="st2" width="293" height="204.5"/>
	<rect x="570.6" y="720.4" class="st2" width="281.7" height="196.6"/>
	<rect x="495.6" y="758.5" class="st3" width="227.1" height="158.5"/>
</g>
<g>
	<polyline class="st4" points="260.9,697.4 280.3,713 298.7,712.7 312.2,673.8 289.3,695.7 	"/>
	<polyline class="st5" points="263.5,668.1 256.8,695.4 263.1,712.8 298.7,712.7 276.2,698.2 	"/>
</g>
<g>
	<polyline class="st4" points="470,621.8 489.5,637.5 507.9,637.2 521.3,598.3 498.4,620.1 	"/>
	<polyline class="st5" points="472.7,592.6 466,619.9 472.3,637.2 507.9,637.2 485.3,622.7 	"/>
</g>
<g>
	<polyline class="st4" points="589.9,747.5 603.5,758.5 616.4,758.3 625.8,731.1 609.7,746.4 	"/>
	<polyline class="st5" points="591.8,727.1 587.1,746.2 591.5,758.3 616.4,758.3 600.6,748.2 	"/>
</g>
<g>
	<polyline class="st4" points="694.8,710.9 708.4,721.8 721.3,721.6 730.7,694.4 714.7,709.7 	"/>
	<polyline class="st5" points="696.7,690.4 692,709.5 696.4,721.6 721.3,721.6 705.5,711.5 	"/>
</g>
</svg>
